<?xml version="1.0" encoding="UTF-8" standalone="no"?>
<!DOCTYPE svg PUBLIC "-//W3C//DTD SVG 1.1//EN" "http://www.w3.org/Graphics/SVG/1.1/DTD/svg11.dtd">
<svg width="100%" height="100%" viewBox="0 0 738 220" version="1.1" xmlns="http://www.w3.org/2000/svg" xmlns:xlink="http://www.w3.org/1999/xlink" xml:space="preserve" xmlns:serif="http://www.serif.com/" style="fill-rule:evenodd;clip-rule:evenodd;stroke-linejoin:round;stroke-miterlimit:2;">
    <g transform="matrix(1,0,0,1,-1193.833908,1019.114352)">
        <g>
            <g transform="matrix(0.84701,0,0,0.84701,817.491223,-232.264927)">
                <g transform="matrix(1.20913,0,0,1.20913,-1238.858461,243.302715)">
                    <path d="M1566.489,-796.563C1565.621,-796.563 1564.795,-796.935 1564.221,-797.585C1556.868,-805.905 1507.127,-862.189 1507.127,-862.189C1507.127,-862.189 1554.243,-914.828 1563.779,-925.482C1564.843,-926.669 1566.361,-927.348 1567.955,-927.348L1567.96,-927.348C1570.984,-927.348 1573.725,-925.571 1574.959,-922.81C1576.193,-920.049 1575.689,-916.821 1573.673,-914.568C1556.69,-895.594 1526.788,-862.189 1526.788,-862.189C1526.788,-862.189 1556.571,-828.489 1573.452,-809.388C1575.461,-807.114 1575.951,-803.874 1574.704,-801.108C1573.457,-798.341 1570.704,-796.563 1567.67,-796.563C1567.228,-796.563 1566.831,-796.563 1566.489,-796.563Z" style="fill:rgb(231,119,73);"/>
                </g>
                <g transform="matrix(1.20913,0,0,1.20913,-1238.858461,243.302715)">
                    <path d="M1507.127,-904.552L1507.127,-819.825C1504.635,-819.375 1502.069,-819.141 1499.449,-819.141C1475.691,-819.141 1456.402,-838.43 1456.402,-862.189C1456.402,-885.947 1475.691,-905.236 1499.449,-905.236C1502.069,-905.236 1504.635,-905.002 1507.127,-904.552Z" style="fill:rgb(231,119,73);"/>
                </g>
                <g transform="matrix(1.20913,0,0,1.20913,-1238.858461,243.302715)">
                    <path d="M1499.449,-754.786C1495.209,-754.786 1491.772,-758.223 1491.772,-762.462C1491.772,-777.192 1491.772,-807.977 1491.772,-807.977C1494.281,-807.624 1496.844,-807.442 1499.449,-807.442C1502.055,-807.442 1504.618,-807.624 1507.127,-807.977L1507.127,-762.462C1507.127,-758.223 1503.69,-754.786 1499.45,-754.786C1499.45,-754.786 1499.449,-754.786 1499.449,-754.786Z" style="fill:rgb(231,119,73);"/>
                </g>
                <g transform="matrix(1.20913,0,0,1.20913,-1238.858461,243.302715)">
                    <path d="M1445.639,-769.241C1442.044,-771.321 1440.814,-775.921 1442.89,-779.519C1450.224,-792.22 1465.726,-819.071 1465.726,-819.071C1469.745,-815.923 1474.214,-813.324 1479.019,-811.387C1479.019,-811.387 1463.73,-784.905 1456.335,-772.097C1455.298,-770.299 1453.588,-768.988 1451.583,-768.452C1449.578,-767.915 1447.442,-768.198 1445.645,-769.238C1445.643,-769.239 1445.641,-769.24 1445.639,-769.241Z" style="fill:rgb(231,119,73);"/>
                </g>
                <g transform="matrix(1.20913,0,0,1.20913,-1238.858461,243.302715)">
                    <path d="M1406.452,-808.464C1405.435,-810.219 1405.158,-812.306 1405.681,-814.266C1406.204,-816.225 1407.486,-817.897 1409.242,-818.911C1421.99,-826.271 1448.68,-841.68 1448.68,-841.68C1450.624,-836.877 1453.23,-832.412 1456.384,-828.399C1456.384,-828.399 1429.749,-813.021 1416.984,-805.65C1413.299,-803.523 1408.587,-804.781 1406.453,-808.463C1406.453,-808.463 1406.453,-808.463 1406.452,-808.464Z" style="fill:rgb(231,119,73);"/>
                </g>
                <g transform="matrix(1.20913,0,0,1.20913,-1238.858461,243.302715)">
                    <path d="M1465.677,-905.267C1465.677,-905.267 1450.303,-931.897 1442.943,-944.645C1440.823,-948.317 1442.081,-953.012 1445.752,-955.132C1445.753,-955.132 1445.753,-955.132 1445.753,-955.132C1449.425,-957.252 1454.12,-955.994 1456.24,-952.322C1463.597,-939.579 1478.962,-912.967 1478.962,-912.967C1474.158,-911.025 1469.692,-908.421 1465.677,-905.267Z" style="fill:rgb(231,119,73);"/>
                </g>
                <g transform="matrix(1.20913,0,0,1.20913,-1238.858461,243.302715)">
                    <path d="M1448.639,-882.597C1448.639,-882.597 1422.004,-897.975 1409.254,-905.336C1407.491,-906.354 1406.204,-908.031 1405.677,-909.998C1405.15,-911.964 1405.426,-914.06 1406.444,-915.823C1406.444,-915.823 1406.445,-915.824 1406.445,-915.824C1407.463,-917.587 1409.139,-918.874 1411.106,-919.401C1413.073,-919.928 1415.168,-919.652 1416.931,-918.634C1429.681,-911.273 1456.318,-895.894 1456.318,-895.894C1453.171,-891.874 1450.574,-887.404 1448.639,-882.597Z" style="fill:rgb(231,119,73);"/>
                </g>
                <g transform="matrix(1.20913,0,0,1.20913,-1238.858461,243.302715)">
                    <path d="M1491.772,-916.4L1491.772,-961.843C1491.772,-963.879 1492.581,-965.832 1494.021,-967.271C1495.46,-968.711 1497.413,-969.52 1499.449,-969.52C1499.449,-969.52 1499.45,-969.52 1499.45,-969.52C1501.486,-969.52 1503.439,-968.711 1504.878,-967.271C1506.318,-965.832 1507.127,-963.879 1507.127,-961.843C1507.127,-947.129 1507.127,-916.4 1507.127,-916.4C1504.618,-916.753 1502.055,-916.935 1499.449,-916.935C1496.844,-916.935 1494.281,-916.753 1491.772,-916.4Z" style="fill:rgb(231,119,73);"/>
                </g>
                <g transform="matrix(1.20913,0,0,1.20913,-1238.858461,243.302715)">
                    <path d="M1445.246,-854.45L1399.733,-854.45C1397.697,-854.45 1395.745,-855.259 1394.305,-856.698C1392.865,-858.138 1392.057,-860.09 1392.057,-862.126C1392.057,-862.127 1392.057,-862.127 1392.057,-862.128C1392.057,-864.164 1392.865,-866.116 1394.305,-867.556C1395.745,-868.995 1397.697,-869.804 1399.733,-869.804C1414.459,-869.804 1445.229,-869.804 1445.229,-869.804C1444.882,-867.315 1444.703,-864.773 1444.703,-862.189C1444.703,-859.562 1444.888,-856.978 1445.246,-854.45Z" style="fill:rgb(231,119,73);"/>
                </g>
            </g>
            <g transform="matrix(1,0,0,1,-186.995139,74.668577)">
                <path d="M1586.36,-943.791L1602.261,-943.791L1602.261,-980.408L1631.488,-943.791L1652.204,-943.791L1616.93,-986.567L1649.404,-1025.536L1629.584,-1025.536L1602.261,-991.718L1602.261,-1025.536L1586.36,-1025.536L1586.36,-943.791Z" style="fill:white;"/>
            </g>
            <g transform="matrix(1,0,0,1,-186.995139,74.668577)">
                <path d="M1669.449,-943.791L1683.67,-943.791L1696.1,-981.528L1708.754,-943.791L1722.863,-943.791L1741.9,-1000.9L1726.895,-1000.9L1715.361,-963.947L1703.379,-1000.9L1689.381,-1000.9L1677.288,-963.835L1665.53,-1000.9L1649.516,-1000.9L1669.449,-943.791Z" style="fill:white;"/>
            </g>
            <g transform="matrix(1,0,0,1,-186.995139,74.668577)">
                <path d="M1805.953,-1000.9L1791.955,-1000.9L1791.955,-995.861C1786.916,-1000.117 1780.421,-1002.58 1773.366,-1002.58C1756.905,-1002.58 1743.692,-989.143 1743.692,-972.345C1743.692,-955.548 1756.905,-942.111 1773.366,-942.111C1780.421,-942.111 1786.916,-944.574 1791.955,-948.83L1791.955,-943.791L1805.953,-943.791L1805.953,-1000.9ZM1759.257,-972.345C1759.257,-981.752 1766.312,-988.919 1775.27,-988.919C1784.117,-988.919 1791.171,-981.752 1791.171,-972.345C1791.171,-962.939 1784.117,-955.772 1775.27,-955.772C1766.312,-955.772 1759.257,-962.939 1759.257,-972.345Z" style="fill:white;"/>
            </g>
            <g transform="matrix(1,0,0,1,-186.995139,74.668577)">
                <path d="M1874.373,-959.916L1860.711,-966.411C1858.583,-960.028 1852.648,-955.772 1845.818,-955.772C1836.859,-955.772 1829.804,-963.051 1829.804,-972.345C1829.804,-981.64 1836.859,-988.919 1845.818,-988.919C1851.977,-988.919 1857.24,-985.559 1859.703,-980.184L1872.917,-987.463C1867.766,-996.869 1857.464,-1002.58 1845.818,-1002.58C1828.237,-1002.58 1814.239,-989.143 1814.239,-972.345C1814.239,-955.548 1828.237,-942.111 1845.93,-942.111C1858.583,-942.111 1869.669,-949.054 1874.373,-959.916Z" style="fill:white;"/>
            </g>
            <g transform="matrix(1,0,0,1,-186.995139,74.668577)">
                <path d="M1881.091,-943.791L1895.873,-943.791L1895.873,-977.833C1895.873,-984.103 1900.912,-989.143 1907.295,-989.143C1913.678,-989.143 1918.269,-984.103 1918.269,-977.385L1918.269,-943.791L1933.05,-943.791L1933.05,-979.848C1933.05,-993.398 1923.644,-1002.804 1910.318,-1002.804C1904.495,-1002.804 1899.344,-1001.012 1895.873,-997.877L1895.873,-1025.536L1881.091,-1025.536L1881.091,-943.791Z" style="fill:white;"/>
            </g>
            <g transform="matrix(1,0,0,1,-186.995139,74.668577)">
                <path d="M2003.486,-1000.9L1989.488,-1000.9L1989.488,-995.861C1984.449,-1000.117 1977.954,-1002.58 1970.899,-1002.58C1954.438,-1002.58 1941.225,-989.143 1941.225,-972.345C1941.225,-955.548 1954.438,-942.111 1970.899,-942.111C1977.954,-942.111 1984.449,-944.574 1989.488,-948.83L1989.488,-943.791L2003.486,-943.791L2003.486,-1000.9ZM1956.79,-972.345C1956.79,-981.752 1963.845,-988.919 1972.803,-988.919C1981.65,-988.919 1988.704,-981.752 1988.704,-972.345C1988.704,-962.939 1981.65,-955.772 1972.803,-955.772C1963.845,-955.772 1956.79,-962.939 1956.79,-972.345Z" style="fill:white;"/>
            </g>
            <g transform="matrix(1,0,0,1,-186.995139,74.668577)">
                <path d="M2009.757,-943.791L2026.554,-943.791L2033.608,-960.588L2071.458,-960.588L2078.288,-943.791L2095.533,-943.791L2061.379,-1025.536L2044.582,-1025.536L2009.757,-943.791ZM2039.431,-974.697L2052.645,-1006.387L2065.635,-974.697L2039.431,-974.697Z" style="fill:rgb(231,119,73);"/>
            </g>
            <g transform="matrix(1,0,0,1,-186.995139,74.668577)">
                <rect x="2102.252" y="-1025.536" width="15.901" height="81.746" style="fill:rgb(231,119,73);"/>
            </g>
        </g>
    </g>
</svg>
